<?xml version="1.0" standalone="no"?><svg xmlns="http://www.w3.org/2000/svg" viewBox="0 0 1440 320"><path fill="#f5a4cd" fill-opacity="1" d="M0,0L20,5.3C40,11,80,21,120,32C160,43,200,53,240,90.7C280,128,320,192,360,213.3C400,235,440,213,480,202.7C520,192,560,192,600,202.7C640,213,680,235,720,229.3C760,224,800,192,840,170.7C880,149,920,139,960,117.3C1000,96,1040,64,1080,64C1120,64,1160,96,1200,117.3C1240,139,1280,149,1320,133.3C1360,117,1400,75,1420,53.3L1440,32L1440,320L1420,320C1400,320,1360,320,1320,320C1280,320,1240,320,1200,320C1160,320,1120,320,1080,320C1040,320,1000,320,960,320C920,320,880,320,840,320C800,320,760,320,720,320C680,320,640,320,600,320C560,320,520,320,480,320C440,320,400,320,360,320C320,320,280,320,240,320C200,320,160,320,120,320C80,320,40,320,20,320L0,320Z"></path></svg>